<svg width="22" height="22" viewBox="0 0 22 22" fill="none" xmlns="http://www.w3.org/2000/svg">
<path id="Vector" d="M19.8909 16.2807C19.1465 15.5307 17.3437 14.4362 16.469 13.9951C15.33 13.4213 15.2362 13.3745 14.3409 14.0396C13.7437 14.4835 13.3467 14.8801 12.6478 14.731C11.9489 14.582 10.4301 13.7415 9.10027 12.4159C7.77042 11.0902 6.88121 9.52742 6.73167 8.83086C6.58214 8.1343 6.98527 7.74195 7.42496 7.14336C8.04464 6.29961 7.99777 6.15898 7.46808 5.01992C7.05511 4.13398 5.92871 2.34805 5.17589 1.60742C4.37058 0.811952 4.37058 0.952577 3.85167 1.1682C3.42922 1.34595 3.02394 1.562 2.64089 1.81367C1.89089 2.31195 1.47464 2.72586 1.18355 3.34789C0.892456 3.96992 0.761675 5.4282 2.26496 8.15914C3.76824 10.8901 4.82292 12.2865 7.00589 14.4634C9.18886 16.6402 10.8675 17.8107 13.3214 19.187C16.357 20.8871 17.5214 20.5557 18.1453 20.2651C18.7692 19.9745 19.185 19.562 19.6842 18.812C19.9365 18.4296 20.153 18.0247 20.3311 17.6026C20.5471 17.0855 20.6878 17.0855 19.8909 16.2807Z" stroke="#545454" stroke-width="1.5" stroke-miterlimit="10"/>
</svg>
